<svg width="92" height="45" viewBox="0 0 92 45" fill="none" xmlns="http://www.w3.org/2000/svg">
<path d="M3.46017 27.3907C3.72629 27.3408 4.02568 27.3076 4.35833 27.3076C4.40823 25.5611 5.40618 22.6671 6.47067 19.6732C5.47271 19.5235 4.62445 19.5235 4.10884 19.8728C3.74292 18.4257 5.12343 18.143 7.01955 18.1763C8.00087 15.3986 8.94893 12.6875 9.14852 10.8745C7.56842 10.7747 6.17128 10.9411 5.28976 11.939C5.007 12.2384 4.2419 8.46282 7.70148 7.83078C10.5124 7.31517 16.5001 9.61047 18.3796 6.96588C18.6624 6.58333 18.8952 10.0429 17.0157 10.9743C15.8182 11.5565 14.2381 11.49 12.5915 11.2904C12.3586 12.8871 11.4937 15.5317 10.5956 18.4091C12.5582 18.5422 14.288 18.5255 14.6539 17.5941C15.2361 21.0703 12.7578 20.9539 9.99678 20.3884C9.23168 22.9498 8.51648 25.5445 8.25036 27.6568C10.6621 27.9396 13.0738 28.0394 14.1383 26.5258C14.4211 26.1433 14.6539 29.6029 12.7744 30.5177C9.48117 32.1476 3.41027 28.8211 1.04844 31.4823C0.765687 31.7817 0.000587158 28.0061 3.46017 27.3907ZM17.4815 17.1617C17.4648 17.0951 21.1573 16.7625 21.0907 18.8915C21.0408 20.2553 17.8474 27.241 18.5127 29.4864C20.1427 27.4074 24.4838 17.1617 24.4838 17.1617C24.4672 17.0951 28.1596 16.7625 28.0764 18.8915C28.0265 20.272 25.2323 25.8439 25.515 29.5862C26.7957 28.239 28.3425 24.5299 28.6253 23.8313C28.6586 23.7648 28.7251 23.7316 28.7916 23.7316C28.9247 23.7316 29.0079 23.848 28.9746 23.9644C28.5754 25.1952 26.9121 30.2682 26.0472 30.7838C25.0493 31.3992 22.3382 30.368 22.0887 29.2369C21.6063 27.1412 23.6355 22.1515 24.3175 19.141C22.9868 22.6172 19.9098 30.4179 18.8453 30.8836C17.864 31.2994 15.2028 30.4511 14.9866 29.1205C14.5874 26.7088 17.9971 19.0911 17.4815 17.1617ZM24.883 38.9171C24.201 34.7257 30.5547 20.6213 29.8894 17.1284C29.8727 17.0619 33.7149 17.1284 33.482 19.2407C33.2658 21.2533 30.405 29.187 29.0578 35.0916C31.4695 26.1433 36.11 17.6773 36.8252 17.2615C37.4738 16.8789 39.4698 17.4444 40.2848 18.8748C41.3825 20.8042 39.0539 30.1185 35.1952 30.9002C34.3303 31.0832 32.2845 29.8025 31.8687 29.2868C30.4383 32.9626 29.1076 37.0709 28.4756 40.8631C28.3924 41.2623 25.1657 40.6469 24.883 38.9171ZM37.1745 18.3093C36.9582 18.2262 34.3968 22.8667 32.0516 28.8045C35.1287 30.5343 37.9562 18.6253 37.1745 18.3093ZM39.9521 28.9875C39.2702 24.7794 45.707 10.1926 45.2745 7.08231C45.2579 7.01578 48.784 7.19874 48.5512 9.31108C48.3183 11.49 44.9419 20.6712 43.8109 26.6589C45.4242 22.6671 48.2351 16.9621 49.8485 17.1118C50.7799 17.1949 52.6594 18.0765 52.8257 18.642C53.2915 20.2054 50.0315 27.3408 49.9649 29.7027C51.2623 28.4552 52.8923 24.5465 53.175 23.8313C53.2083 23.7648 53.2748 23.7316 53.3414 23.7316C53.4744 23.7316 53.5576 23.848 53.5243 23.9644C53.1251 25.1952 51.2955 30.8337 50.5637 30.9335C49.1167 31.1331 46.6717 30.0852 46.4721 28.7712C46.2226 26.9915 49.0668 21.22 49.3495 18.4257C48.5179 18.2927 43.5115 28.3055 43.5448 30.8836C43.6445 31.3493 40.2515 30.7505 39.9521 28.9875ZM52.9754 28.7546C51.9941 25.977 54.2229 19.0245 56.7344 17.4112C57.5993 16.8457 59.9445 16.9953 60.693 17.4943C61.3416 17.9101 60.9258 18.3093 60.9258 18.3093C58.2147 17.0452 55.0213 28.8211 56.2687 29.9688C57.7157 31.2994 61.1587 20.405 59.0796 19.9726C59.0796 19.9726 60.0443 18.6087 60.8759 18.7085C63.7534 19.0911 61.5745 28.871 57.5494 30.7671C56.4517 31.2828 53.8403 31.183 52.9754 28.7546ZM61.6909 29.1538C61.2585 26.5092 64.5351 19.0578 64.0029 17.1284C63.9862 17.0619 67.8783 16.7625 67.8117 18.8915C67.7618 20.089 65.6495 24.4468 65.2836 28.0228C66.5476 24.0975 69.4417 16.9454 71.238 17.1118C72.1695 17.1949 73.7995 17.96 73.9658 18.5089C74.182 19.2407 71.9532 22.7336 72.552 24.8958C67.5955 24.6796 70.8056 19.0744 70.7391 18.4257C69.9074 18.2927 65.4499 28.2057 65.4665 30.8004C65.4832 30.9002 65.3667 30.9667 65.2836 30.9501C64.5684 30.8669 61.9072 30.4844 61.6909 29.1538ZM78.9223 16.8623C74.1654 16.2302 77.1925 13.5524 76.9929 11.7893C82.149 12.621 78.5065 14.4007 78.9223 16.8623ZM72.5354 29.1538C72.0697 26.609 75.496 19.0578 74.9804 17.1284C74.9637 17.0619 78.8225 16.7625 78.756 18.8915C78.7061 20.272 75.9451 25.7607 76.1779 29.5031C77.442 28.0893 78.9389 24.5133 79.2217 23.8313C79.2383 23.7648 79.3049 23.7316 79.388 23.7316C79.5044 23.7316 79.5876 23.848 79.5543 23.9644C79.1718 25.1952 77.3588 30.5177 76.5605 30.9002C75.7455 31.2661 72.7516 30.4012 72.5354 29.1538ZM82.4817 30.8836C81.8829 31.2994 79.1884 30.5676 78.573 29.4532C77.7747 28.0228 79.7706 20.7709 81.6002 18.4257C83.0306 16.6128 86.1242 17.0619 86.8561 17.4943C87.039 17.5941 87.1056 17.6939 87.0058 17.9767C86.8893 18.2927 86.6565 18.2262 86.2906 18.1264C84.4277 17.644 81.6334 27.8564 81.8164 29.9355L87.7542 17.2947C87.9538 16.7459 91.4799 17.6606 91.1473 18.3592C90.8146 19.0578 88.3863 27.3408 88.3197 29.7027C89.6171 28.4552 91.2637 24.5465 91.5465 23.8313C91.5797 23.7648 91.6463 23.7316 91.7128 23.7316C91.8292 23.7316 91.929 23.848 91.8791 23.9644C91.4966 25.1952 89.667 30.8337 88.9351 30.9335C87.4715 31.1331 85.0265 30.0852 84.8435 28.7712C84.6772 27.6568 85.592 24.2139 86.4402 21.3864C84.9766 25.1786 82.8143 30.6507 82.4817 30.8836Z" fill="#3C4242"/>
<path d="M0.568359 33.626H22.9716" stroke="#333333" stroke-width="0.420324" stroke-miterlimit="10" stroke-linecap="round" stroke-linejoin="round"/>
<path d="M32.5547 33.626H91.6051" stroke="#3C4242" stroke-width="0.420324" stroke-miterlimit="10" stroke-linecap="round" stroke-linejoin="round"/>
<path d="M40.5186 41.2618C40.355 41.2618 40.166 41.1972 39.9502 41.0689C39.7351 40.9399 39.5062 40.7694 39.265 40.5566C39.0238 40.3438 38.7865 40.1126 38.5522 39.8622C38.3187 39.6126 38.1028 39.3637 37.9062 39.1156C37.7095 38.8682 37.5444 38.6478 37.4107 38.455L36.3307 40.7863C36.2785 40.9 36.1971 40.9806 36.0857 41.0275C35.9743 41.0743 35.8537 41.1027 35.7239 41.1127C35.5941 41.1227 35.4658 41.1273 35.3398 41.1273C35.4359 40.9891 35.5349 40.8301 35.6348 40.6519C35.7354 40.4736 35.8537 40.2586 35.9912 40.0058C36.1287 39.7531 36.29 39.4466 36.4759 39.0849C36.6618 38.7238 36.8823 38.2914 37.1388 37.789C37.3946 37.2867 37.6972 36.6967 38.0467 36.0185C38.069 35.9785 38.099 35.9232 38.1359 35.8518C38.1727 35.7803 38.1919 35.7143 38.1919 35.6551C38.1919 35.6006 38.1735 35.5576 38.1359 35.5253C38.099 35.4931 38.0283 35.4769 37.9246 35.4769C37.7464 35.4769 37.5736 35.5253 37.4069 35.6213C37.2402 35.7174 37.0912 35.8403 36.9614 35.9893C36.8316 36.1375 36.7294 36.2911 36.6549 36.4494C36.5804 36.6076 36.5435 36.749 36.5435 36.8726C36.5435 36.9671 36.5619 37.0508 36.5988 37.1253C36.3538 37.1253 36.181 37.0846 36.0811 37.0032C35.9805 36.9218 35.9305 36.8212 35.9305 36.7021C35.9305 36.5339 36.0043 36.3657 36.1533 36.1974C36.3015 36.0292 36.4928 35.8741 36.7271 35.7335C36.9614 35.5921 37.2064 35.48 37.4622 35.3955C37.718 35.3118 37.95 35.2695 38.1581 35.2695C38.3586 35.2695 38.4938 35.3064 38.5645 35.3809C38.6351 35.4554 38.6705 35.5368 38.6705 35.6259C38.6705 35.6805 38.6613 35.735 38.6428 35.7896C38.6244 35.8441 38.6036 35.8963 38.5814 35.9455L37.6458 37.9649C37.7495 37.8658 37.8854 37.7744 38.0521 37.6899C38.2188 37.6062 38.4032 37.5094 38.6036 37.4003C38.9378 37.2221 39.2957 37.014 39.6783 36.7766C40.0608 36.5393 40.4264 36.2888 40.7752 36.0269C41.1239 35.7642 41.4135 35.5123 41.6439 35.2695C41.6808 35.2995 41.7069 35.351 41.7223 35.4255C41.7369 35.5 41.7446 35.5568 41.7446 35.596C41.7446 35.7496 41.6501 35.9178 41.4603 36.1007C41.2706 36.2835 41.024 36.4732 40.7199 36.6683C40.4157 36.8642 40.0815 37.057 39.7174 37.2475C39.3533 37.438 38.9954 37.6177 38.6428 37.7859C38.2902 37.9542 37.9722 38.1001 37.6903 38.2238C37.9131 38.4765 38.1305 38.7161 38.3417 38.9443C38.553 39.1717 38.7834 39.3944 39.0323 39.6126C39.2811 39.8307 39.5723 40.0535 39.9064 40.2808C40.2405 40.5082 40.6453 40.7532 41.1201 41.0159C41.0678 41.0805 40.9864 41.1373 40.875 41.1865C40.7636 41.2372 40.6446 41.2618 40.5186 41.2618Z" fill="#3C4242"/>
<path d="M46.4777 40.9796C46.0245 40.9796 45.6889 40.8882 45.4699 40.7046C45.251 40.5218 45.1412 40.3013 45.1412 40.044C44.8216 40.3259 44.4545 40.5464 44.0389 40.7046C43.6234 40.8628 43.2032 40.9419 42.7807 40.9419C42.3275 40.9419 41.988 40.859 41.7614 40.6931C41.5348 40.5272 41.4219 40.3228 41.4219 40.0809C41.4219 39.8581 41.5056 39.6231 41.6723 39.3757C41.8397 39.1284 42.0625 38.8956 42.3406 38.6775C42.6186 38.4601 42.9251 38.2827 43.2593 38.1467C43.5934 38.0107 43.9237 37.9424 44.2509 37.9424C44.4214 37.9424 44.5797 37.9723 44.7241 38.0315C44.8693 38.0906 44.9415 38.212 44.9415 38.3956C44.9415 38.5838 44.8577 38.7604 44.6911 38.9264C44.5244 39.0923 44.3047 39.2398 44.0343 39.368C43.7632 39.4971 43.4659 39.6016 43.1433 39.6837C42.8206 39.7659 42.4988 39.8159 42.18 39.8358C42.1654 39.8858 42.1539 39.9326 42.1462 39.9772C42.1385 40.0217 42.1347 40.064 42.1347 40.1031C42.1347 40.2022 42.1608 40.2998 42.2131 40.3966C42.2645 40.4934 42.3536 40.5725 42.4804 40.6339C42.6063 40.6961 42.7845 40.7269 43.015 40.7269C43.4083 40.7269 43.7985 40.6339 44.1849 40.4488C44.5705 40.2629 44.9084 40.034 45.198 39.7621C45.2649 39.5593 45.3839 39.3565 45.5544 39.153C45.725 38.9502 45.9316 38.7658 46.1728 38.5999C46.414 38.434 46.6759 38.3003 46.9578 38.1989C47.2397 38.0975 47.5262 38.0468 47.8158 38.0468C47.9864 38.0468 48.1446 38.0768 48.289 38.136C48.4334 38.1951 48.5064 38.3165 48.5064 38.5C48.5064 38.7528 48.3781 38.974 48.1223 39.1645C47.8665 39.355 47.5378 39.5071 47.1368 39.6215C46.7358 39.7352 46.3241 39.8074 45.9009 39.8366C45.8863 39.8865 45.8748 39.9334 45.8671 39.9779C45.8594 40.0225 45.8555 40.0647 45.8555 40.1039C45.8555 40.203 45.8794 40.3044 45.9278 40.4081C45.9761 40.5118 46.0614 40.5971 46.1835 40.6639C46.3064 40.7307 46.4823 40.7637 46.7128 40.7637C47.0323 40.7637 47.3511 40.7008 47.6707 40.5748C47.9902 40.4488 48.2867 40.2829 48.5617 40.077C48.8367 39.8719 49.0664 39.6499 49.2522 39.4126L49.3859 39.4794C49.1854 39.7767 48.9273 40.0379 48.6116 40.2629C48.2959 40.488 47.9549 40.6639 47.5869 40.7899C47.2182 40.9166 46.8487 40.9796 46.4777 40.9796ZM42.2346 39.6945C42.435 39.6499 42.6616 39.5847 42.9136 39.4979C43.1663 39.4111 43.409 39.3089 43.6433 39.1898C43.8776 39.0708 44.0704 38.9402 44.2225 38.7965C44.3746 38.6529 44.4506 38.5024 44.4506 38.3434C44.4506 38.2888 44.436 38.2466 44.4061 38.2174C44.3761 38.1874 44.3131 38.1728 44.2171 38.1728C44.0389 38.1728 43.8492 38.2189 43.6487 38.3103C43.4482 38.4017 43.2554 38.5216 43.0695 38.6706C42.8836 38.8188 42.717 38.9824 42.5679 39.1606C42.4197 39.3381 42.3083 39.5163 42.2346 39.6945ZM45.9546 39.6945C46.1551 39.6499 46.374 39.5908 46.6122 39.5163C46.8495 39.4418 47.0761 39.3542 47.292 39.2528C47.507 39.1514 47.6852 39.0354 47.8266 38.9041C47.9672 38.7727 48.0378 38.6283 48.0378 38.4701C48.0378 38.4156 48.0194 38.3695 47.9817 38.3326C47.9449 38.2957 47.878 38.2773 47.7813 38.2773C47.5439 38.2773 47.3043 38.3464 47.0631 38.4855C46.8219 38.6237 46.6029 38.8012 46.4055 39.0162C46.2089 39.2305 46.0583 39.4571 45.9546 39.6945Z" fill="#3C4242"/>
<path d="M48.3164 42.6949C48.2572 42.6949 48.1996 42.6742 48.1435 42.632C48.0875 42.5897 48.0452 42.5452 48.0153 42.4983C47.9853 42.4514 47.9707 42.423 47.9707 42.413C48.0744 42.1703 48.1766 41.9537 48.2772 41.7632C48.3778 41.5727 48.4777 41.3768 48.5783 41.1763C48.6782 40.9759 48.7772 40.7408 48.8733 40.4712C48.97 40.2016 49.0699 39.8659 49.1744 39.4649C49.2781 39.064 49.3825 38.5662 49.4862 37.9724C49.4939 37.9279 49.5085 37.8956 49.5308 37.8757C49.5531 37.8557 49.6084 37.8457 49.6975 37.8457C49.8903 37.8457 50.0278 37.8818 50.11 37.9532C50.1914 38.0247 50.2321 38.103 50.2321 38.1868C50.2321 38.2559 50.2098 38.3796 50.1653 38.5578C50.1207 38.736 50.0577 38.9464 49.9763 39.1892C50.1023 39.0256 50.2605 38.8596 50.4495 38.6914C50.6384 38.5232 50.8558 38.3819 51.1009 38.2682C51.3459 38.1545 51.6132 38.0977 51.9028 38.0977C52.2292 38.0977 52.4989 38.176 52.7101 38.3312C52.9213 38.4871 53.0273 38.6914 53.0273 38.9441C53.0273 39.1369 52.962 39.3413 52.8322 39.5563C52.7024 39.7714 52.5204 39.975 52.2869 40.1655C52.0533 40.356 51.776 40.5111 51.4573 40.6294C51.1377 40.7485 50.7851 40.8076 50.3995 40.8076C50.206 40.8076 50.0508 40.793 49.9317 40.7631C49.8127 40.7331 49.7535 40.7039 49.7535 40.674C49.7535 40.654 49.7812 40.6433 49.8373 40.6402C49.8933 40.6379 49.9579 40.6363 50.0324 40.6363C50.3296 40.6363 50.6131 40.5879 50.8842 40.4912C51.1554 40.3944 51.3981 40.2669 51.614 40.1086C51.829 39.9504 51.998 39.7745 52.1209 39.5817C52.2431 39.3889 52.3045 39.1984 52.3045 39.0102C52.3045 38.852 52.2546 38.7168 52.154 38.6054C52.0541 38.494 51.892 38.4387 51.6693 38.4387C51.4765 38.4387 51.2852 38.4794 51.0955 38.5608C50.9057 38.6423 50.7275 38.7467 50.5609 38.8727C50.3934 38.9987 50.2451 39.13 50.1153 39.266C49.9855 39.4019 49.8872 39.5248 49.8204 39.6332C49.6867 40.0042 49.5531 40.3621 49.4194 40.7062C49.2857 41.0504 49.1575 41.3622 49.0353 41.6418C48.9124 41.9214 48.8018 42.1503 48.7012 42.3285C48.6013 42.5067 48.5176 42.6158 48.4508 42.655C48.4124 42.6826 48.3678 42.6949 48.3164 42.6949Z" fill="#3C4242"/>
<path d="M57.0701 40.8083C56.7805 40.8083 56.5647 40.7476 56.4241 40.6263C56.2828 40.5049 56.2129 40.3574 56.2129 40.1846C56.2129 40.0709 56.2444 39.9273 56.3074 39.7537C56.3704 39.5808 56.4541 39.3988 56.5578 39.2083C56.6615 39.0178 56.7821 38.838 56.9196 38.6698C57.0571 38.5016 57.2038 38.3641 57.3597 38.2573C57.5156 38.1513 57.6677 38.0976 57.8168 38.0976C57.8836 38.0976 57.9412 38.1114 57.9896 38.1383C58.038 38.1652 58.0618 38.2066 58.0618 38.2604C58.0618 38.3196 58.0042 38.4163 57.889 38.55C57.7737 38.6836 57.6385 38.8373 57.4826 39.0101C57.3267 39.1837 57.1915 39.365 57.0763 39.5555C56.9611 39.746 56.9034 39.928 56.9034 40.1016C56.9034 40.2798 56.948 40.3989 57.0371 40.458C57.1262 40.5172 57.2637 40.5471 57.4496 40.5471C57.7023 40.5471 57.9711 40.4634 58.2569 40.2944C58.5426 40.1262 58.8453 39.832 59.1648 39.4111L59.2647 39.4856C59.0496 39.9111 58.7393 40.2383 58.3345 40.4657C57.9289 40.6946 57.508 40.8083 57.0701 40.8083ZM58.4059 37.4078C58.2869 37.4078 58.1816 37.3878 58.0887 37.3486C57.9957 37.3087 57.9496 37.2472 57.9496 37.1627C57.9496 37.059 58.0403 36.9684 58.2223 36.8916C58.4044 36.8148 58.5841 36.7764 58.7623 36.7764C58.8737 36.7764 58.9628 36.794 59.0296 36.8286C59.0965 36.8632 59.1295 36.9231 59.1295 37.0068C59.1295 37.1005 59.0535 37.1912 58.9014 37.278C58.75 37.3648 58.5849 37.4078 58.4059 37.4078Z" fill="#3C4242"/>
<path d="M59.8971 40.9573C59.5776 40.9573 59.3326 40.8951 59.162 40.7715C58.9915 40.6478 58.9062 40.465 58.9062 40.2222C58.9062 40.0049 58.9677 39.736 59.0898 39.4165C59.212 39.0969 59.3664 38.7697 59.5523 38.4325C59.4777 38.4225 59.4078 38.414 59.341 38.4064C59.2742 38.3987 59.2112 38.3879 59.1521 38.3733V38.2397C59.2112 38.2443 59.2819 38.2497 59.3633 38.2543C59.4447 38.2589 59.5377 38.2643 59.6414 38.2689C59.7973 38.0016 59.9647 37.7427 60.1422 37.4931C60.3204 37.2434 60.4971 37.0207 60.6714 36.8248C60.8458 36.6297 61.0132 36.473 61.173 36.357C61.3328 36.241 61.468 36.1826 61.5794 36.1826C61.6385 36.1826 61.6923 36.1964 61.7407 36.2233C61.7891 36.2502 61.8129 36.2917 61.8129 36.3455C61.8129 36.43 61.7353 36.5667 61.5794 36.7579C61.4234 36.9484 61.2306 37.175 61.0002 37.437C60.7697 37.6997 60.547 37.9839 60.3319 38.2911C60.3987 38.2911 60.4671 38.2911 60.5378 38.2911C60.6084 38.2911 60.6768 38.2911 60.7436 38.2911C60.9887 38.2911 61.2468 38.2888 61.5179 38.2835C61.7891 38.2789 62.0618 38.2658 62.3367 38.2466V38.3802C61.9281 38.4102 61.5625 38.4325 61.2398 38.4471C60.9172 38.4617 60.6292 38.4694 60.3765 38.4694C60.3465 38.4694 60.3189 38.4694 60.2927 38.4694C60.2666 38.4694 60.239 38.4694 60.209 38.4694C60.0385 38.7321 59.8933 39.0017 59.775 39.279C59.6559 39.5563 59.5968 39.8259 59.5968 40.0886C59.5968 40.3014 59.6452 40.4534 59.7412 40.5449C59.8372 40.6363 59.997 40.6823 60.2205 40.6823C60.6069 40.6823 60.9856 40.5687 61.3566 40.3405C61.7276 40.1132 62.0541 39.8036 62.3367 39.4126L62.4812 39.4871C62.3029 39.7644 62.0779 40.0141 61.8075 40.2368C61.5363 40.4596 61.2375 40.6355 60.9111 40.7638C60.5839 40.8928 60.2466 40.9573 59.8971 40.9573Z" fill="#3C4242"/>
<path d="M66.2143 41.031C65.8578 41.031 65.5606 40.9519 65.3232 40.7937C65.0859 40.6354 64.9668 40.3981 64.9668 40.0808C64.9668 39.8335 65.039 39.5923 65.1842 39.3565C65.3286 39.1214 65.5199 38.9102 65.758 38.722C65.9953 38.5338 66.2588 38.384 66.5484 38.2726C66.838 38.1613 67.1237 38.106 67.4064 38.106C67.7106 38.106 67.9187 38.1651 68.0301 38.2842C68.1415 38.4032 68.1968 38.5269 68.1968 38.6552C68.1968 38.7988 68.1469 38.9248 68.0463 39.0339C67.9464 39.1429 67.8104 39.1975 67.6399 39.1975C67.5139 39.1975 67.4064 39.1606 67.3165 39.0861C67.4279 39.0469 67.5247 38.9663 67.6061 38.8449C67.6875 38.7235 67.729 38.6083 67.729 38.4992C67.729 38.4401 67.7121 38.394 67.6791 38.3617C67.6453 38.3295 67.5808 38.3134 67.484 38.3134C67.2835 38.3134 67.0776 38.3725 66.8656 38.4916C66.6544 38.6106 66.457 38.7635 66.2757 38.9517C66.0937 39.1399 65.9454 39.338 65.8302 39.5454C65.715 39.7536 65.6574 39.9487 65.6574 40.1323C65.6574 40.2859 65.7134 40.4265 65.8248 40.5555C65.9362 40.6838 66.1513 40.7483 66.4708 40.7483C66.7681 40.7483 67.0669 40.6938 67.3672 40.5847C67.6676 40.4757 67.9479 40.3197 68.2083 40.1169C68.468 39.9141 68.6761 39.676 68.8321 39.4041L68.9765 39.4786C68.8059 39.7759 68.5717 40.0417 68.2752 40.2767C67.9779 40.5118 67.6514 40.6961 67.295 40.8298C66.9378 40.9642 66.5776 41.031 66.2143 41.031Z" fill="#3C4242"/>
<path d="M69.5434 40.8383C69.2238 40.8383 68.9957 40.7653 68.8582 40.6194C68.7207 40.4734 68.6523 40.2914 68.6523 40.074C68.6523 39.8367 68.7192 39.554 68.8528 39.2275C68.9865 38.9011 69.1632 38.5569 69.3821 38.1951C69.601 37.8341 69.8406 37.4816 70.1003 37.1367C70.3599 36.7925 70.6195 36.4799 70.8799 36.1972C71.1396 35.9153 71.3792 35.6895 71.5981 35.5213C71.8171 35.353 71.9899 35.2686 72.1159 35.2686C72.1973 35.2686 72.2641 35.2993 72.3163 35.3615C72.3686 35.4237 72.4093 35.4975 72.4392 35.5843C72.4684 35.6711 72.4838 35.7486 72.4838 35.8178C72.4838 35.9514 72.4339 36.1258 72.3332 36.3416C72.2334 36.5567 72.092 36.7971 71.91 37.0621C71.728 37.3272 71.5129 37.5945 71.264 37.8641C71.0151 38.1337 70.744 38.3926 70.4513 38.6399C70.1579 38.8872 69.8483 39.1 69.5211 39.2782C69.4766 39.4119 69.4412 39.5417 69.4151 39.6684C69.389 39.7944 69.3759 39.915 69.3759 40.0287C69.3759 40.2215 69.4166 40.3651 69.4981 40.4596C69.5795 40.5533 69.7024 40.6009 69.866 40.6009C70.0665 40.6009 70.2654 40.5418 70.4621 40.4227C70.6587 40.3037 70.8446 40.1539 71.019 39.9734C71.1933 39.7929 71.3439 39.6062 71.4699 39.4126L71.6365 39.4718C71.3393 39.8927 71.0167 40.2253 70.6672 40.4704C70.3192 40.7162 69.9443 40.8383 69.5434 40.8383ZM69.6217 39.0263C69.8814 38.8527 70.1341 38.6537 70.3791 38.4287C70.6241 38.2036 70.8523 37.9693 71.0643 37.7274C71.2763 37.4846 71.4637 37.2496 71.6266 37.0222C71.7894 36.7948 71.9161 36.5905 72.0052 36.41C72.0944 36.2295 72.1389 36.0897 72.1389 35.9906C72.1389 35.9414 72.1297 35.9092 72.1113 35.8938C72.0928 35.8792 72.0759 35.8715 72.0613 35.8715C72.0022 35.8715 71.9 35.9345 71.7548 36.0605C71.6104 36.1865 71.4414 36.3562 71.2479 36.569C71.0551 36.7818 70.8584 37.0245 70.6579 37.2964C70.4575 37.5684 70.2662 37.8533 70.0841 38.1506C69.9013 38.4471 69.7477 38.7398 69.6217 39.0263Z" fill="#3C4242"/>
<path d="M71.7832 40.9642C71.5528 40.9642 71.3576 40.9135 71.1986 40.8121C71.0389 40.7107 70.959 40.5563 70.959 40.3481C70.959 40.1699 71.0181 39.9779 71.1372 39.7728C71.2555 39.5677 71.4191 39.3642 71.6273 39.1637C71.8354 38.9632 72.0712 38.7804 72.3347 38.6145C72.5982 38.4485 72.8763 38.3164 73.1704 38.2173C73.4639 38.1183 73.755 38.0691 74.0446 38.0691C74.3342 38.0691 74.5754 38.1198 74.7682 38.2212C74.961 38.3226 75.0578 38.4578 75.0578 38.626C75.0578 38.7497 75.0078 38.8342 74.9072 38.8787C74.8066 38.9233 74.6752 38.9455 74.5116 38.9455C74.5262 38.9056 74.5393 38.8626 74.5508 38.8157C74.5623 38.7689 74.5677 38.7258 74.5677 38.6859C74.5677 38.5722 74.527 38.4747 74.4455 38.3925C74.3634 38.3111 74.2228 38.2703 74.0223 38.2703C73.8141 38.2703 73.6029 38.3187 73.3871 38.4148C73.172 38.5115 72.9638 38.6398 72.7633 38.8011C72.5628 38.9624 72.3846 39.1368 72.2287 39.325C72.0728 39.5132 71.9506 39.6991 71.8608 39.8819C71.7717 40.0647 71.7271 40.2283 71.7271 40.372C71.7271 40.5648 71.827 40.6615 72.0282 40.6615C72.1988 40.6615 72.3846 40.6085 72.5851 40.5018C72.7856 40.3958 72.9915 40.259 73.2035 40.0931C73.4147 39.9272 73.6175 39.7551 73.8103 39.5769C74.0031 39.3987 74.1744 39.2351 74.3226 39.0869C74.3518 39.0569 74.371 39.0423 74.378 39.0423C74.4225 39.0469 74.4801 39.0569 74.5508 39.0723C74.6215 39.0869 74.6829 39.1068 74.7344 39.1314C74.7866 39.156 74.8127 39.1883 74.8127 39.2282C74.8127 39.2728 74.7789 39.3334 74.7121 39.4103C74.6453 39.4871 74.5708 39.5746 74.4893 39.6737C74.4071 39.7728 74.3334 39.8734 74.2666 39.9748C74.1997 40.0762 74.1667 40.1715 74.1667 40.2606C74.1667 40.3351 74.1959 40.4081 74.2558 40.4795C74.315 40.5517 74.4118 40.587 74.5454 40.587C74.7459 40.587 75.0094 40.4895 75.3358 40.2936C75.6623 40.0985 75.9933 39.8051 76.3275 39.4133L76.4389 39.4878C76.2829 39.7551 76.0824 39.9902 75.8374 40.193C75.5924 40.3958 75.3304 40.5548 75.0524 40.6685C74.7743 40.7821 74.5009 40.839 74.2335 40.839C73.9586 40.839 73.7565 40.7844 73.6267 40.6754C73.4969 40.5663 73.4316 40.448 73.4316 40.319C73.4316 40.289 73.4355 40.256 73.4431 40.2191C73.45 40.1822 73.4577 40.1438 73.4654 40.1039C73.1459 40.3912 72.8547 40.6062 72.5913 40.7499C72.327 40.8928 72.0574 40.9642 71.7832 40.9642Z" fill="#3C4242"/>
<path d="M77.2735 40.9943C76.9248 40.9943 76.6482 40.9436 76.4439 40.8422C76.2396 40.7408 76.0952 40.6156 76.0091 40.4674C75.9239 40.3191 75.8809 40.1701 75.8809 40.0219C75.8809 39.8736 75.9108 39.7592 75.97 39.68C76.0299 39.6009 76.1021 39.5418 76.1873 39.5018C76.2726 39.4619 76.354 39.4327 76.4324 39.4127C76.5107 39.3928 76.5637 39.3728 76.5937 39.3536C76.8164 39.19 77.0208 39.0195 77.2067 38.8412C77.3925 38.663 77.5554 38.4748 77.6967 38.2767V38.1876C77.6967 38.0047 77.7428 37.8742 77.8358 37.7973C77.9287 37.7205 78.027 37.6821 78.1307 37.6821C78.1899 37.6821 78.2344 37.6921 78.2644 37.7121C78.2943 37.7321 78.3089 37.7543 78.3089 37.7789C78.3089 37.8035 78.2982 37.8434 78.2759 37.898C78.2536 37.9525 78.2421 38.0216 78.2421 38.1061C78.2421 38.2698 78.2905 38.4464 78.3865 38.6369C78.4833 38.8274 78.5793 39.0279 78.6761 39.2384C78.7721 39.4488 78.8205 39.6678 78.8205 39.8951C78.8205 39.9596 78.8151 40.0226 78.8036 40.0841C78.7929 40.1463 78.776 40.2039 78.7537 40.2585C79.0133 40.2285 79.2583 40.1509 79.4888 40.0249C79.7192 39.899 79.942 39.6969 80.1571 39.4196L80.2569 39.4942C80.1156 39.7661 79.9044 39.9727 79.6224 40.114C79.3405 40.2554 79.0317 40.3429 78.6976 40.3775C78.5785 40.5903 78.3911 40.7462 78.1353 40.8453C77.8803 40.9452 77.5923 40.9943 77.2735 40.9943ZM77.2958 40.7347C77.3849 40.7347 77.5039 40.7147 77.6522 40.6756C77.8004 40.6356 77.9156 40.5342 77.9978 40.3714C77.686 40.3322 77.4094 40.25 77.1683 40.1263C76.9271 40.0027 76.7465 39.879 76.6283 39.7553C76.4646 39.7607 76.3832 39.8467 76.3832 40.015C76.3832 40.1932 76.4631 40.3575 76.6229 40.5089C76.7811 40.6586 77.0062 40.7347 77.2958 40.7347ZM78.0531 40.2515C78.0677 40.2024 78.0793 40.1501 78.0862 40.0956C78.0939 40.0411 78.0977 39.9765 78.0977 39.9028C78.0977 39.6701 78.0547 39.4389 77.9694 39.2084C77.8842 38.978 77.8119 38.7614 77.752 38.5586C77.5815 38.7468 77.401 38.9265 77.212 39.097C77.0231 39.2676 76.8426 39.4104 76.672 39.5241C76.7834 39.6824 76.9562 39.8314 77.1898 39.9696C77.424 40.1087 77.7113 40.2024 78.0531 40.2515Z" fill="#3C4242"/>
<path d="M81.1153 40.9943C80.7666 40.9943 80.49 40.9436 80.2857 40.8422C80.0814 40.7408 79.937 40.6156 79.8509 40.4674C79.7657 40.3191 79.7227 40.1701 79.7227 40.0219C79.7227 39.8736 79.7526 39.7592 79.8118 39.68C79.8717 39.6009 79.9439 39.5418 80.0291 39.5018C80.1144 39.4619 80.1958 39.4327 80.2742 39.4127C80.3525 39.3928 80.4055 39.3728 80.4355 39.3536C80.6582 39.19 80.8626 39.0195 81.0485 38.8412C81.2343 38.663 81.3972 38.4748 81.5385 38.2767V38.1876C81.5385 38.0047 81.5846 37.8742 81.6776 37.7973C81.7705 37.7205 81.8688 37.6821 81.9725 37.6821C82.0317 37.6821 82.0762 37.6921 82.1062 37.7121C82.1361 37.7321 82.1507 37.7543 82.1507 37.7789C82.1507 37.8035 82.14 37.8434 82.1177 37.898C82.0954 37.9525 82.0839 38.0216 82.0839 38.1061C82.0839 38.2698 82.1323 38.4464 82.2283 38.6369C82.3251 38.8274 82.4211 39.0279 82.5179 39.2384C82.6139 39.4488 82.6623 39.6678 82.6623 39.8951C82.6623 39.9596 82.6569 40.0226 82.6454 40.0841C82.6346 40.1463 82.6178 40.2039 82.5955 40.2585C82.8551 40.2285 83.1001 40.1509 83.3306 40.0249C83.561 39.899 83.7838 39.6969 83.9989 39.4196L84.0987 39.4942C83.9574 39.7661 83.7461 39.9727 83.4642 40.114C83.1823 40.2554 82.8735 40.3429 82.5394 40.3775C82.4203 40.5903 82.2329 40.7462 81.9771 40.8453C81.7229 40.9452 81.4348 40.9943 81.1153 40.9943ZM81.1376 40.7347C81.2267 40.7347 81.3457 40.7147 81.494 40.6756C81.6422 40.6356 81.7574 40.5342 81.8396 40.3714C81.5278 40.3322 81.2512 40.25 81.01 40.1263C80.7689 40.0027 80.5883 39.879 80.47 39.7553C80.3064 39.7607 80.225 39.8467 80.225 40.015C80.225 40.1932 80.3049 40.3575 80.4647 40.5089C80.6237 40.6586 80.848 40.7347 81.1376 40.7347ZM81.8949 40.2515C81.9095 40.2024 81.9211 40.1501 81.928 40.0956C81.9356 40.0411 81.9395 39.9765 81.9395 39.9028C81.9395 39.6701 81.8965 39.4389 81.8112 39.2084C81.7259 38.978 81.6537 38.7614 81.5938 38.5586C81.4233 38.7468 81.2428 38.9265 81.0538 39.097C80.8649 39.2676 80.6844 39.4104 80.5138 39.5241C80.6252 39.6824 80.798 39.8314 81.0316 39.9696C81.2658 40.1087 81.5539 40.2024 81.8949 40.2515Z" fill="#3C4242"/>
<path d="M84.2685 42.6948C84.0826 42.6948 83.9197 42.6617 83.7784 42.5949C83.6371 42.5281 83.5664 42.4305 83.5664 42.3015C83.5664 42.1432 83.6263 42.0019 83.7446 41.8782C83.8629 41.7546 84.0227 41.6409 84.2239 41.5364C84.4244 41.4327 84.6541 41.3336 84.9145 41.2392C85.1741 41.1454 85.4453 41.051 85.7272 40.9572C85.8309 40.7744 85.9369 40.5701 86.0444 40.345C86.1519 40.12 86.2541 39.8711 86.3509 39.5992C86.1135 39.8565 85.8593 40.0777 85.5881 40.2636C85.317 40.4495 85.0289 40.5417 84.7247 40.5417C84.5834 40.5417 84.4444 40.5209 84.3069 40.4787C84.1694 40.4365 84.0565 40.3712 83.9674 40.2821C83.8783 40.193 83.8337 40.0793 83.8337 39.9402C83.8337 39.802 83.8691 39.6407 83.9397 39.4578C84.0104 39.275 84.0972 39.0968 84.2016 38.9232C84.3053 38.7504 84.4129 38.6068 84.525 38.4923C84.6372 38.3778 84.7332 38.3218 84.8146 38.3218C84.8446 38.3218 84.8983 38.3295 84.9759 38.3441C85.0543 38.3586 85.128 38.3802 85.1987 38.407C85.2694 38.4347 85.3047 38.4631 85.3047 38.4923C85.2379 38.5568 85.1634 38.6482 85.0819 38.7673C84.9997 38.8864 84.9206 39.0185 84.8423 39.1644C84.7647 39.3104 84.6994 39.4525 84.6472 39.5915C84.5949 39.7298 84.5696 39.8488 84.5696 39.9479C84.5696 40.037 84.5988 40.1085 84.6587 40.163C84.7178 40.2175 84.8223 40.2444 84.9705 40.2444C85.1111 40.2444 85.2694 40.1991 85.4437 40.1069C85.6181 40.0155 85.7925 39.898 85.9676 39.7544C86.142 39.6107 86.3033 39.4571 86.4523 39.2942C86.4746 39.2397 86.4945 39.1844 86.5137 39.1275C86.5322 39.0707 86.5491 39.0123 86.5637 38.9532C86.5859 38.884 86.6397 38.8034 86.725 38.712C86.8102 38.6206 86.9462 38.5745 87.1313 38.5745C87.1682 38.5745 87.2051 38.576 87.2427 38.5783C87.2796 38.5806 87.3203 38.5868 87.3648 38.5968C87.3648 38.6759 87.3295 38.8234 87.2588 39.0384C87.1882 39.2535 87.0875 39.5055 86.9577 39.792C86.8279 40.0793 86.6735 40.3735 86.4953 40.6753C86.844 40.5862 87.1859 40.4388 87.52 40.2337C87.8541 40.0286 88.1253 39.7544 88.3327 39.4133L88.4771 39.4878C88.3657 39.7252 88.1967 39.9318 87.9701 40.1077C87.7435 40.2836 87.4893 40.4341 87.2074 40.5609C86.9255 40.6869 86.6466 40.7921 86.3716 40.8766C86.1788 41.1931 85.9691 41.4903 85.7425 41.7676C85.5159 42.0449 85.2786 42.2692 85.0297 42.4397C84.7824 42.6095 84.5281 42.6948 84.2685 42.6948ZM84.2124 42.4566C84.3238 42.4566 84.5112 42.3591 84.7747 42.1632C85.0382 41.9673 85.3185 41.6248 85.6158 41.1347C85.3116 41.2438 85.0289 41.3513 84.7693 41.4581C84.5097 41.5641 84.3015 41.6793 84.1456 41.8037C83.9896 41.9274 83.9121 42.071 83.9121 42.2347C83.9121 42.2746 83.9343 42.3215 83.9789 42.376C84.0234 42.4298 84.101 42.4566 84.2124 42.4566Z" fill="#3C4242"/>
<path d="M88.5674 40.69C88.4706 40.69 88.3876 40.6738 88.3169 40.6416C88.2463 40.6093 88.2109 40.5586 88.2109 40.4895C88.2109 40.4349 88.244 40.3842 88.3108 40.3374C88.3776 40.2905 88.4613 40.2529 88.5612 40.226C88.6611 40.1991 88.7594 40.1853 88.8562 40.1853C88.9453 40.1853 89.0159 40.1976 89.0674 40.2222C89.1189 40.2468 89.145 40.2944 89.145 40.3635C89.145 40.4134 89.1173 40.4626 89.0613 40.5118C89.0052 40.5609 88.933 40.6032 88.8439 40.6377C88.7548 40.6723 88.6641 40.69 88.5674 40.69Z" fill="#3C4242"/>
</svg>
